<?xml version="1.0" encoding="UTF-8"?>
<svg width="18px" height="18px" viewBox="0 0 18 18" version="1.1" xmlns="http://www.w3.org/2000/svg" xmlns:xlink="http://www.w3.org/1999/xlink">
    <!-- Generator: Sketch 44.1 (41455) - http://www.bohemiancoding.com/sketch -->
    <title>返回</title>
    <desc>Created with Sketch.</desc>
    <defs></defs>
    <g id="P-编程" stroke="none" stroke-width="1" fill="none" fill-rule="evenodd">
        <g id="Toolbox01-Copy-4" transform="translate(-1238.000000, -21.000000)" fill="#9B9B9B">
            <path d="M1247.02041,21.0406833 C1242.06876,21.0406833 1238.04068,25.0687332 1238.04068,30.0202707 C1238.04068,34.9719028 1242.06871,39 1247.02041,39 C1251.97195,39 1256,34.9719501 1256,30.0202707 C1256,25.0687332 1251.97195,21.0406833 1247.02041,21.0406833 M1244.01862,30.5007122 C1243.82876,30.3127884 1243.78129,30.0357162 1243.87621,29.8028279 C1243.87682,29.8002733 1243.88006,29.7977424 1243.88129,29.7951879 C1243.91214,29.7226439 1243.95443,29.653364 1244.01344,29.5937582 C1244.01413,29.5930959 1244.01484,29.5930959 1244.01538,29.5925046 C1244.016,29.5918187 1244.016,29.5912273 1244.01666,29.5905414 L1247.20186,26.3963811 C1247.45199,26.1456347 1247.85794,26.1443811 1248.10881,26.3951038 C1248.35956,26.6452589 1248.36024,27.0512405 1248.11009,27.3020578 L1245.3783,30.0414639 L1248.13246,32.76559 C1248.38458,33.0150355 1248.38654,33.4204258 1248.13764,33.6724258 C1248.01257,33.7994665 1247.84706,33.862975 1247.68159,33.862975 C1247.51871,33.862975 1247.35574,33.8007201 1247.23069,33.6776058 L1244.01858,30.5007595 L1244.01862,30.5007122" id="返回" transform="translate(1247.020342, 30.020342) scale(-1, 1) translate(-1247.020342, -30.020342) "></path>
        </g>
    </g>
</svg>