<?xml version="1.0" encoding="UTF-8" standalone="no"?>
<svg width="40px" height="40px" viewBox="0 0 40 40" version="1.1" xmlns="http://www.w3.org/2000/svg" xmlns:xlink="http://www.w3.org/1999/xlink">
    <!-- Generator: Sketch 45.1 (43504) - http://www.bohemiancoding.com/sketch -->
    <title>build3</title>
    <desc>Created with Sketch.</desc>
    <defs></defs>
    <g id="P-编程" stroke="none" stroke-width="1" fill="none" fill-rule="evenodd">
        <g id="build3">
            <g id="Group-7" transform="translate(8.000000, 10.000000)">
                <g id="Group-6">
                    <g id="arrow-copy">
                        <path d="M0.329268293,0.244664634 L0.329268293,5.08622332 C0.329268293,7.76014235 2.49363035,9.92778201 5.1808107,9.92778201 L15.6625381,9.92778201" id="Path-3" stroke="#9B9B9B" stroke-width="2" stroke-linecap="round"></path>
                        <path d="M17.278038,9.96096479 C17.278038,9.73625251 17.1923131,9.51154024 17.0208634,9.34009055 L12.6208742,4.94010136 C12.2779749,4.59720198 11.7220251,4.59720198 11.3791258,4.94010136 C11.0362264,5.28300074 11.0362264,5.83895048 11.3791258,6.18184986 L15.1582407,9.96096479 L11.3791258,13.7400797 C11.0362264,14.0829791 11.0362264,14.6389288 11.3791258,14.9818282 C11.7220251,15.3247276 12.2779749,15.3247276 12.6208742,14.9818282 L17.0208634,10.581839 C17.1923131,10.4103894 17.278038,10.1856771 17.278038,9.96096479 Z" id="Combined-Shape" fill="#9B9B9B"></path>
                    </g>
                    <path d="M5,13 L7,13 L7,16 C7,17.1045695 7.8954305,18 9,18 L21,18 C22.1045695,18 23,17.1045695 23,16 L23,4 C23,2.8954305 22.1045695,2 21,2 L9,2 C7.8954305,2 7,2.8954305 7,4 L7,7 L5,7 L5,4 C5,1.790861 6.790861,0 9,0 L21,0 C23.209139,0 25,1.790861 25,4 L25,16 C25,18.209139 23.209139,20 21,20 L9,20 C6.790861,20 5,18.209139 5,16 L5,13 Z" id="Rectangle-4" fill="#4A4A4A" fill-rule="nonzero"></path>
                </g>
            </g>
        </g>
    </g>
</svg>