<?xml version="1.0" encoding="UTF-8"?>
<svg width="14px" height="14px" viewBox="0 0 14 14" version="1.1" xmlns="http://www.w3.org/2000/svg" xmlns:xlink="http://www.w3.org/1999/xlink">
    <!-- Generator: Sketch 44.1 (41455) - http://www.bohemiancoding.com/sketch -->
    <title>关闭 (2)</title>
    <desc>Created with Sketch.</desc>
    <defs></defs>
    <g id="P-编程" stroke="none" stroke-width="1" fill="none" fill-rule="evenodd">
        <g id="editing_烧录失败_弹窗" transform="translate(-746.000000, -94.000000)" fill="#9B9B9B">
            <path d="M755.160503,98.8604357 C754.94207,98.6420029 754.588079,98.6420029 754.369646,98.8604357 L752.986348,100.243734 L751.60305,98.8604357 C751.384617,98.6420029 751.031096,98.6420029 750.812664,98.8604357 C750.594231,99.0788684 750.594231,99.4323889 750.812664,99.6508216 L752.195962,101.03412 L750.812664,102.417418 C750.594231,102.635851 750.594231,102.989842 750.812664,103.207804 C751.031096,103.426257 751.384617,103.426257 751.60305,103.207804 L752.986348,101.824506 L754.369646,103.207804 C754.588079,103.426257 754.94207,103.426257 755.160503,103.208275 C755.378485,102.989842 755.378485,102.635851 755.160503,102.417418 L753.777205,101.03412 L755.160503,99.6508216 C755.378485,99.4323889 755.378485,99.0788684 755.160503,98.8604357 M752.986348,94.0477719 C749.128018,94.0477719 746,97.1757895 746,101.03412 C746,104.89245 749.128018,108.020468 752.986348,108.020468 C756.845149,108.020468 759.972696,104.89245 759.972696,101.03412 C759.972696,97.1757895 756.844678,94.0477719 752.986348,94.0477719 M752.986348,106.902658 C749.745614,106.902658 747.11781,104.275325 747.11781,101.03412 C747.11781,97.793386 749.745614,95.1655819 752.986348,95.1655819 C756.227553,95.1655819 758.854886,97.793386 758.854886,101.03412 C758.854886,104.275325 756.227553,106.902658 752.986348,106.902658" id="关闭-(2)"></path>
        </g>
    </g>
</svg>