<?xml version="1.0" encoding="UTF-8"?>
<svg width="213px" height="76px" viewBox="0 0 213 76" version="1.1" xmlns="http://www.w3.org/2000/svg" xmlns:xlink="http://www.w3.org/1999/xlink">
    <!-- Generator: Sketch 44.1 (41455) - http://www.bohemiancoding.com/sketch -->
    <title>Group 4</title>
    <desc>Created with Sketch.</desc>
    <defs></defs>
    <g id="P-编程" stroke="none" stroke-width="1" fill="none" fill-rule="evenodd">
        <g id="Toolbox01-Copy-4" transform="translate(-955.000000, -225.000000)">
            <g id="Group-4" transform="translate(955.000000, 225.000000)">
                <path d="M40.3356164,11.5 L186.670542,11.5" id="Line" stroke="#A9A9A9" stroke-linecap="square" stroke-dasharray="4"></path>
                <circle id="Oval-3" fill="#FFD48D" cx="46" cy="12" r="12"></circle>
                <text id="1" font-family="PingFangSC-Medium, PingFang SC" font-size="12" font-weight="400" letter-spacing="0.857142925" fill="#FFFFFF">
                    <tspan x="43.2468571" y="17">1</tspan>
                </text>
                <text id="将本地硬件模块连接到控制板" font-family="PingFangSC-Light, PingFang SC" font-size="12" font-weight="300" letter-spacing="0.857142925" fill="#9B9B9B">
                    <tspan x="0" y="57">将本地硬件模块</tspan>
                    <tspan x="0" y="74">连接到控制板</tspan>
                </text>
                <g id="Group-3" transform="translate(166.000000, 0.000000)">
                    <circle id="Oval-3-Copy" fill="#FFD48D" cx="24" cy="12" r="12"></circle>
                    <text id="2" font-family="PingFangSC-Medium, PingFang SC" font-size="12" font-weight="400" letter-spacing="0.857142925" fill="#FFFFFF">
                        <tspan x="20.4714285" y="17">2</tspan>
                    </text>
                    <g id="Group" transform="translate(0.000000, 44.000000)">
                        <g id="刷新-copy" transform="translate(32.000000, 2.000000)" fill="#4A90E2">
                            <path d="M10.2523228,10.3518504 C9.41948819,10.9426969 8.44501969,11.2388976 7.44883858,11.2252559 C7.31712598,11.2238583 7.18629921,11.2169488 7.0571063,11.2054331 C7.00429134,11.2003937 6.95145669,11.1916339 6.89838583,11.1849409 C6.79665354,11.1712992 6.69468504,11.1575 6.59568898,11.1380906 C6.53431102,11.1263189 6.47435039,11.1104134 6.41438976,11.0963189 C6.31726378,11.0732283 6.22057087,11.0499409 6.1257874,11.0213583 C6.08009843,11.0070472 6.03559055,10.9906693 5.99037402,10.9752165 C5.88102362,10.9380709 5.77212598,10.8998031 5.66602362,10.8548031 C5.64202756,10.8450787 5.61895669,10.833622 5.59496063,10.8227362 C5.4713189,10.7675787 5.34858268,10.7097047 5.23045276,10.6446457 C5.22468504,10.6416339 5.21984252,10.6391142 5.2140748,10.6361417 C4.81334646,10.4132677 4.44653543,10.1350591 4.12496063,9.80998031 C4.12009843,9.80494094 4.11478346,9.79891732 4.10950787,9.79314961 C4.0096063,9.69161417 3.91433071,9.58551181 3.82366142,9.47480315 C3.80474409,9.45125984 3.78627953,9.42588583 3.76712598,9.40165354 C3.1126378,8.57255906 2.71791339,7.52332677 2.71791339,6.38179134 L3.82812992,6.38179134 C3.85679134,6.38179134 3.88454724,6.36643701 3.89909449,6.33940945 C3.91366142,6.31240157 3.91122047,6.2807874 3.89545276,6.25683071 L2.02925197,3.4226378 C2.01482283,3.40074803 1.99003937,3.38633858 1.96190945,3.38633858 C1.93375984,3.38633858 1.90895669,3.40076772 1.89456693,3.4226378 L0.0283267717,6.25675197 C0.0125590551,6.28072835 0.0101377953,6.31234252 0.0246850394,6.33935039 C0.0392519685,6.36635827 0.066988189,6.38173228 0.0956692913,6.38173228 L1.20612205,6.38173228 C1.20612205,7.72372047 1.61929134,8.9676378 2.32129921,9.99610236 C2.32984252,10.0104331 2.33608268,10.0256496 2.3455315,10.0399803 C2.41818898,10.1451575 2.49895669,10.2422835 2.57690945,10.3417126 C2.60598425,10.379311 2.63320866,10.4180512 2.6634252,10.4549409 C2.77832677,10.5961417 2.90035433,10.7287992 3.02586614,10.8584449 C3.03785433,10.8713583 3.04893701,10.8840354 3.06070866,10.8955906 C3.4819685,11.3225984 3.95836614,11.6825197 4.47651575,11.9701969 C4.48990157,11.9782874 4.5032874,11.9866142 4.5180315,11.9942126 C4.66730315,12.075374 4.82070866,12.1487598 4.97620079,12.2182087 C5.01498031,12.2350197 5.05281496,12.2539567 5.09224409,12.2705906 C5.2251378,12.3264173 5.36169291,12.375315 5.49942913,12.4219291 C5.56448819,12.444311 5.6290748,12.4671457 5.69505906,12.4876575 C5.81525591,12.5236614 5.93820866,12.553878 6.06232283,12.583622 C6.14444882,12.6030118 6.22610236,12.6239961 6.30988189,12.6401378 C6.34470472,12.6473031 6.37746063,12.6581496 6.41163386,12.6634449 C6.52834646,12.6844488 6.64600394,12.6962008 6.76297244,12.7105118 C6.80517717,12.7155906 6.8467126,12.7227559 6.88893701,12.7273425 C7.09911417,12.7483465 7.30856299,12.7621654 7.51783465,12.7621654 C8.79844488,12.7621654 10.0479331,12.3656102 11.1197244,11.6054528 C11.4611811,11.3625394 11.5444882,10.8859252 11.3052362,10.5396457 C11.0652953,10.1926772 10.5937598,10.108937 10.2523228,10.3518504" id="Fill-1"></path>
                            <path d="M13.8057874,6.38173228 C13.8050787,5.04391732 13.3944488,3.80251969 12.6958858,2.77614173 C12.6857283,2.75860236 12.6787992,2.74084646 12.6673031,2.72444882 C12.5805512,2.59895669 12.4857087,2.48198819 12.391378,2.36480315 C12.3805512,2.35049213 12.3704134,2.33549213 12.3588583,2.32141732 C11.7195669,1.53612205 10.9169882,0.929606299 10.0073425,0.533051181 C9.98216535,0.521968504 9.9575,0.509744094 9.93214567,0.498661417 C9.78700787,0.438228346 9.63818898,0.384704724 9.48874016,0.334173228 C9.43474409,0.316181102 9.38192913,0.296358268 9.32679134,0.27996063 C9.19643701,0.240059055 9.06425197,0.207519685 8.93088583,0.176377953 C8.85730315,0.159074803 8.78372047,0.14015748 8.70917323,0.125393701 C8.67228346,0.118228346 8.63746063,0.107165354 8.60100394,0.100472441 C8.5015748,0.0831692913 8.40167323,0.0755708661 8.30200787,0.0624212598 C8.23279528,0.0536614173 8.16543307,0.0428149606 8.09576772,0.0356496063 C7.9282874,0.0199606299 7.76214567,0.0132874016 7.59606299,0.0102952756 C7.56561024,0.0102952756 7.5363189,0.00543307087 7.50610236,0.00543307087 C7.50057087,0.00543307087 7.49551181,0.00706692913 7.48996063,0.00751968504 C6.21094488,0.00844488189 4.96425197,0.399468504 3.89379921,1.15870079 C3.55143701,1.4009252 3.46814961,1.87801181 3.70761811,2.22452756 C3.94663386,2.57104331 4.41885827,2.65501969 4.76051181,2.41208661 C5.58734252,1.82588583 6.55190945,1.52919291 7.54116142,1.53818898 C7.68350394,1.53911417 7.82354331,1.54625984 7.9619685,1.55942913 C8.00462598,1.56427165 8.04687008,1.57072835 8.08929134,1.57602362 C8.20305118,1.59009843 8.31584646,1.60647638 8.42702756,1.62862205 C8.4761811,1.63832677 8.52462598,1.65100394 8.57257874,1.66208661 C8.6817126,1.68698819 8.79061024,1.71375984 8.89718504,1.74629921 C8.93086614,1.75714567 8.96405512,1.76937008 8.99775591,1.78043307 C9.11935039,1.82080709 9.23905512,1.86419291 9.35675197,1.91377953 C9.36872047,1.91885827 9.38096457,1.92509843 9.3925,1.92992126 C10.0970472,2.23675197 10.7150984,2.70901575 11.1972638,3.30005906 C11.2002953,3.30350394 11.203248,3.30812992 11.2060433,3.31159449 C11.8847638,4.14811024 12.2933465,5.21738189 12.2937992,6.38173228 L11.1831102,6.38173228 C11.1544488,6.38173228 11.1266929,6.3971063 11.1121457,6.42411417 C11.0975984,6.45112205 11.1000197,6.48275591 11.1158071,6.5067126 L12.9824606,9.34062992 C12.9968701,9.3625 13.0216535,9.37690945 13.0498031,9.37690945 C13.0779528,9.37688976 13.1027362,9.36248031 13.117126,9.34061024 L14.9829134,6.50669291 C14.9987008,6.48273622 15.001122,6.45112205 14.9865551,6.42409449 C14.9720079,6.39708661 14.944252,6.3817126 14.9155906,6.3817126 L13.8057874,6.3817126 L13.8057874,6.38173228" id="Fill-2"></path>
                        </g>
                        <text id="点击" font-family="PingFangSC-Light, PingFang SC" font-size="12" font-weight="300" letter-spacing="0.857142925" fill="#9B9B9B">
                            <tspan x="0" y="13">点击</tspan>
                        </text>
                    </g>
                </g>
            </g>
        </g>
    </g>
</svg>