<?xml version="1.0" encoding="UTF-8" standalone="no"?>
<svg width="13px" height="13px" viewBox="0 0 13 13" version="1.1" xmlns="http://www.w3.org/2000/svg" xmlns:xlink="http://www.w3.org/1999/xlink">
    <!-- Generator: Sketch 45.1 (43504) - http://www.bohemiancoding.com/sketch -->
    <title>Group 5</title>
    <desc>Created with Sketch.</desc>
    <defs></defs>
    <g id="节点" stroke="none" stroke-width="1" fill="none" fill-rule="evenodd">
        <g id="D12_素材" transform="translate(-198.000000, -299.000000)" fill="#C9C9C9">
            <g id="Group-5" transform="translate(198.000000, 299.000000)">
                <rect id="Rectangle-8" x="0" y="5" width="1" height="3"></rect>
                <rect id="Rectangle-8-Copy" x="12" y="5" width="1" height="3"></rect>
                <rect id="Rectangle-8-Copy-2" transform="translate(6.500000, 0.500000) rotate(-90.000000) translate(-6.500000, -0.500000) " x="6" y="-1" width="1" height="3"></rect>
                <rect id="Rectangle-8-Copy-3" transform="translate(6.500000, 12.500000) rotate(-90.000000) translate(-6.500000, -12.500000) " x="6" y="11" width="1" height="3"></rect>
                <rect id="Rectangle-7" x="5" y="5" width="3" height="3"></rect>
                <path d="M13,0.5 L13,0 L10,0 L10,1 L12,1 L12,3 L13,3 L13,0.5 Z" id="Combined-Shape"></path>
                <path d="M13,10.5 L13,10 L10,10 L10,11 L12,11 L12,13 L13,13 L13,10.5 Z" id="Combined-Shape-Copy-2" transform="translate(11.500000, 11.500000) rotate(-270.000000) translate(-11.500000, -11.500000) "></path>
                <path d="M3,10.5 L3,10 L0,10 L0,11 L2,11 L2,13 L3,13 L3,10.5 Z" id="Combined-Shape-Copy-3" transform="translate(1.500000, 11.500000) scale(-1, 1) rotate(-270.000000) translate(-1.500000, -11.500000) "></path>
                <path d="M3,0.5 L3,0 L0,0 L0,1 L2,1 L2,3 L3,3 L3,0.5 Z" id="Combined-Shape-Copy-4" transform="translate(1.500000, 1.500000) scale(-1, -1) rotate(-270.000000) translate(-1.500000, -1.500000) "></path>
            </g>
        </g>
    </g>
</svg>