<?xml version="1.0" standalone="no"?><!DOCTYPE svg PUBLIC "-//W3C//DTD SVG 1.1//EN" "http://www.w3.org/Graphics/SVG/1.1/DTD/svg11.dtd"><svg t="1499656752672" class="icon" style="" viewBox="0 0 1024 1024" version="1.1" xmlns="http://www.w3.org/2000/svg" p-id="810" xmlns:xlink="http://www.w3.org/1999/xlink" width="16" height="16"><defs><style type="text/css"></style></defs><path d="M512 1024A512 512 0 1 1 512 0a512 512 0 0 1 0 1024zM512 352a96 96 0 1 0 0-192 96 96 0 0 0 0 192zM448 511.36v257.28A64 64 0 0 0 512 832c35.584 0 64-28.416 64-63.36V511.36A64 64 0 0 0 512 448c-35.584 0-64 28.416-64 63.36z" p-id="811" fill="#ffffff"></path></svg>