<?xml version="1.0" encoding="UTF-8"?>
<svg width="14px" height="14px" viewBox="0 0 14 14" version="1.1" xmlns="http://www.w3.org/2000/svg" xmlns:xlink="http://www.w3.org/1999/xlink">
    <!-- Generator: Sketch 44.1 (41455) - http://www.bohemiancoding.com/sketch -->
    <title>模块</title>
    <desc>Created with Sketch.</desc>
    <defs></defs>
    <g id="P-编程" stroke="none" stroke-width="1" fill="none" fill-rule="evenodd">
        <g id="Toolbox01-Copy-4" transform="translate(-955.000000, -23.000000)" fill="#FFFFFF">
            <g id="Group-3" transform="translate(915.000000, 14.000000)">
                <path d="M53.558424,11.5403264 L47.0545551,14.1895286 L40.5358466,11.5403264 L47.0395202,9.02503208 L53.558424,11.5403264 M40.0000195,12.6417183 L46.4890293,15.3502594 L46.4890293,22.6875872 C45.973099,22.4596039 45.4374672,22.2209791 44.8816653,21.9731185 C44.4055481,21.7650321 43.8671241,21.5319526 43.2668815,21.2738996 C42.6665802,21.0158075 42.0639749,20.7577741 41.4586165,20.4996234 C41.2403961,20.4005105 41.0418577,20.2691213 40.8632357,20.1055342 C40.6845941,19.9419861 40.5307894,19.7631297 40.4019582,19.5698828 C40.2729317,19.3762064 40.1737601,19.1702678 40.1042483,18.9520279 C40.0347755,18.733788 40,18.5206248 40,18.3121283 L40,12.6417183 L40.0000195,12.6417183 M53.9601674,12.6417183 L53.9601674,18.2824491 C53.9601674,18.5401116 53.9106109,18.7909791 53.8114198,19.0338215 C53.712053,19.2770739 53.5855649,19.5050181 53.4317406,19.7182008 C53.2781116,19.9317936 53.1068703,20.1203738 52.9183096,20.2839414 C52.7299442,20.4479582 52.5462845,20.574212 52.367643,20.6636597 C51.8417155,20.8818801 51.2912441,21.1098828 50.7157406,21.3480195 C50.1402566,21.5861953 49.6094868,21.8044547 49.1232162,22.0031883 C48.5576709,22.240954 48.0021423,22.4693668 47.456318,22.6875872 L47.456318,15.3502594 L53.9601674,12.6417183" id="模块"></path>
            </g>
        </g>
    </g>
</svg>