<?xml version="1.0" encoding="UTF-8"?>
<svg width="20px" height="17px" viewBox="0 0 20 17" version="1.1" xmlns="http://www.w3.org/2000/svg" xmlns:xlink="http://www.w3.org/1999/xlink">
    <!-- Generator: Sketch 44.1 (41455) - http://www.bohemiancoding.com/sketch -->
    <title>刷新</title>
    <desc>Created with Sketch.</desc>
    <defs></defs>
    <g id="P-编程" stroke="none" stroke-width="1" fill="none" fill-rule="evenodd">
        <g id="Toolbox01-Copy-4" transform="translate(-1223.000000, -83.000000)" fill="#4A90E2">
            <g id="刷新" transform="translate(1223.000000, 83.000000)">
                <path d="M13.6697638,13.8024672 C12.5593176,14.5902625 11.2600262,14.9851969 9.93178478,14.9670079 C9.75616798,14.9651444 9.58173228,14.9559318 9.40947507,14.9405774 C9.33905512,14.9338583 9.26860892,14.9221785 9.19784777,14.9132546 C9.06220472,14.8950656 8.92624672,14.8766667 8.79425197,14.8507874 C8.7124147,14.8350919 8.63246719,14.8138845 8.55251969,14.7950919 C8.42301837,14.7643045 8.29409449,14.7332546 8.16771654,14.6951444 C8.1067979,14.676063 8.04745407,14.6542257 7.98716535,14.633622 C7.84136483,14.5840945 7.69616798,14.5330709 7.55469816,14.4730709 C7.52270341,14.460105 7.49194226,14.4448294 7.45994751,14.430315 C7.29509186,14.3567717 7.13144357,14.2796063 6.97393701,14.1928609 C6.96624672,14.1888451 6.95979003,14.1854856 6.95209974,14.1815223 C6.41779528,13.884357 5.92871391,13.5134121 5.49994751,13.0799738 C5.49346457,13.0732546 5.48637795,13.0652231 5.47934383,13.0575328 C5.34614173,12.9221522 5.21910761,12.7806824 5.09821522,12.6330709 C5.07299213,12.6016798 5.0483727,12.5678478 5.02283465,12.5355381 C4.15018373,11.4300787 3.62388451,10.0311024 3.62388451,8.50905512 L5.10417323,8.50905512 C5.14238845,8.50905512 5.17939633,8.48858268 5.19879265,8.45254593 C5.21821522,8.41653543 5.21496063,8.3743832 5.19393701,8.34244094 L2.70566929,4.56351706 C2.68643045,4.53433071 2.65338583,4.51511811 2.61587927,4.51511811 C2.57834646,4.51511811 2.54527559,4.53435696 2.52608924,4.56351706 L0.0377690289,8.34233596 C0.0167454068,8.37430446 0.0135170604,8.41645669 0.0329133858,8.45246719 C0.052335958,8.48847769 0.0893175853,8.50897638 0.127559055,8.50897638 L1.60816273,8.50897638 C1.60816273,10.298294 2.15905512,11.9568504 3.09506562,13.3281365 C3.10645669,13.3472441 3.1147769,13.3675328 3.12737533,13.3866404 C3.22425197,13.5268766 3.33194226,13.656378 3.43587927,13.7889501 C3.47464567,13.8390814 3.51094488,13.8907349 3.5512336,13.9399213 C3.7044357,14.128189 3.86713911,14.3050656 4.03448819,14.4779265 C4.05047244,14.4951444 4.06524934,14.5120472 4.08094488,14.5274541 C4.64262467,15.0967979 5.27782152,15.5766929 5.96868766,15.9602625 C5.98653543,15.9710499 6.0043832,15.9821522 6.02404199,15.9922835 C6.22307087,16.1004987 6.42761155,16.1983465 6.63493438,16.2909449 C6.68664042,16.3133596 6.73708661,16.3386089 6.78965879,16.3607874 C6.96685039,16.4352231 7.14892388,16.5004199 7.33257218,16.5625722 C7.41931759,16.5924147 7.50543307,16.6228609 7.59341207,16.65021 C7.75367454,16.6982152 7.91761155,16.7385039 8.08309711,16.7781627 C8.19259843,16.8040157 8.30146982,16.8319948 8.41317585,16.8535171 C8.4596063,16.8630709 8.50328084,16.8775328 8.54884514,16.8845932 C8.70446194,16.9125984 8.86133858,16.9282677 9.01729659,16.9473491 C9.07356955,16.9541207 9.12895013,16.9636745 9.18524934,16.96979 C9.46548556,16.9977953 9.74475066,17.0162205 10.0237795,17.0162205 C11.7312598,17.0162205 13.3972441,16.4874803 14.8262992,15.473937 C15.2815748,15.1500525 15.3926509,14.5145669 15.0736483,14.0528609 C14.753727,13.5902362 14.1250131,13.4785827 13.6697638,13.8024672" id="Fill-1"></path>
                <path d="M18.4077165,8.50897638 C18.4067717,6.7252231 17.8592651,5.07002625 16.9278478,3.70152231 C16.9143045,3.67813648 16.9050656,3.65446194 16.8897375,3.63259843 C16.7740682,3.46527559 16.6476115,3.30931759 16.5218373,3.15307087 C16.5074016,3.1339895 16.4938845,3.1139895 16.4784777,3.0952231 C15.6260892,2.04816273 14.5559843,1.23947507 13.3431234,0.710734908 C13.3095538,0.695958005 13.2766667,0.679658793 13.2428609,0.66488189 C13.0493438,0.584304462 12.8509186,0.512939633 12.6516535,0.445564304 C12.5796588,0.421574803 12.5092388,0.395144357 12.4357218,0.37328084 C12.261916,0.32007874 12.0856693,0.276692913 11.9078478,0.235170604 C11.8097375,0.212099738 11.7116273,0.18687664 11.612231,0.167191601 C11.5630446,0.157637795 11.5166142,0.142887139 11.4680052,0.133963255 C11.3354331,0.110892388 11.202231,0.100761155 11.0693438,0.0832283465 C10.9770604,0.0715485564 10.8872441,0.0570866142 10.794357,0.0475328084 C10.5710499,0.0266141732 10.3495276,0.0177165354 10.128084,0.0137270341 C10.0874803,0.0137270341 10.0484252,0.00724409449 10.0081365,0.00724409449 C10.0007612,0.00724409449 9.99401575,0.00942257218 9.98661417,0.0100262467 C8.28125984,0.0112598425 6.61900262,0.532624672 5.19173228,1.54493438 C4.73524934,1.86790026 4.62419948,2.50401575 4.94349081,2.96603675 C5.26217848,3.42805774 5.89181102,3.54002625 6.34734908,3.21611549 C7.44979003,2.43451444 8.73587927,2.03892388 10.0548819,2.05091864 C10.2446719,2.05215223 10.4313911,2.06167979 10.615958,2.07923885 C10.6728346,2.08569554 10.7291601,2.09430446 10.7857218,2.10136483 C10.9374016,2.12013123 11.0877953,2.1419685 11.2360367,2.17149606 C11.3015748,2.1844357 11.366168,2.20133858 11.430105,2.21611549 C11.5756168,2.24931759 11.7208136,2.28501312 11.8629134,2.32839895 C11.9078215,2.34286089 11.9520735,2.3591601 11.9970079,2.37391076 C12.1591339,2.42774278 12.3187402,2.48559055 12.4756693,2.55170604 C12.4916273,2.55847769 12.5079528,2.5667979 12.5233333,2.57322835 C13.4627297,2.98233596 14.2867979,3.612021 14.929685,4.40007874 C14.933727,4.40467192 14.937664,4.4108399 14.9413911,4.41545932 C15.8463517,5.53081365 16.3911286,6.95650919 16.3917323,8.50897638 L14.9108136,8.50897638 C14.8725984,8.50897638 14.8355906,8.52947507 14.8161942,8.56548556 C14.7967979,8.60149606 14.8000262,8.64367454 14.8210761,8.6756168 L17.3099475,12.4541732 C17.3291601,12.4833333 17.3622047,12.5025459 17.3997375,12.5025459 C17.4372703,12.5025197 17.470315,12.4833071 17.4895013,12.454147 L19.9772178,8.67559055 C19.9982677,8.64364829 20.0014961,8.60149606 19.9820735,8.56545932 C19.9626772,8.52944882 19.9256693,8.50895013 19.8874541,8.50895013 L18.4077165,8.50895013 L18.4077165,8.50897638" id="Fill-2"></path>
            </g>
        </g>
    </g>
</svg>