<?xml version="1.0" encoding="UTF-8"?>
<svg width="14px" height="14px" viewBox="0 0 14 14" version="1.1" xmlns="http://www.w3.org/2000/svg" xmlns:xlink="http://www.w3.org/1999/xlink">
    <!-- Generator: Sketch 44.1 (41455) - http://www.bohemiancoding.com/sketch -->
    <title>search</title>
    <desc>Created with Sketch.</desc>
    <defs></defs>
    <g id="P-编程" stroke="none" stroke-width="1" fill="none" fill-rule="evenodd">
        <g id="Toolbox01-Copy-4" transform="translate(-1169.000000, -85.000000)" fill="#9B9B9B">
            <path d="M1182.78951,97.9794175 L1179.6066,94.7980583 C1180.44388,93.7697087 1180.94563,92.4586408 1180.94563,91.0295146 C1180.94563,87.7300971 1178.27223,85.056699 1174.97282,85.056699 C1171.6734,85.056699 1169,87.7300971 1169,91.0295146 C1169,94.328932 1171.6734,97.0023301 1174.97282,97.0023301 C1176.39573,97.0023301 1177.70214,96.5052427 1178.72738,95.6741748 L1181.91029,98.8570874 C1182.03146,98.9782524 1182.1899,99.038835 1182.3499,99.038835 C1182.50835,99.038835 1182.66835,98.9782524 1182.78951,98.8570874 C1183.03184,98.6147573 1183.03184,98.2217476 1182.78951,97.9794175 Z M1176.86175,95.503301 C1176.26369,95.7565049 1175.62835,95.8838835 1174.97282,95.8838835 C1174.31728,95.8838835 1173.68194,95.7549515 1173.08388,95.503301 C1172.50602,95.2594175 1171.98718,94.9083495 1171.53981,94.4625243 C1171.09398,94.016699 1170.74291,93.4963107 1170.49903,92.9184466 C1170.24583,92.3203883 1170.11845,91.6850485 1170.11845,91.0295146 C1170.11845,90.3739806 1170.24738,89.7386408 1170.49903,89.1405825 C1170.74291,88.5627184 1171.09398,88.0438835 1171.53981,87.5965049 C1171.98563,87.1506796 1172.50602,86.7996117 1173.08388,86.5557282 C1173.68194,86.3025243 1174.31728,86.1751456 1174.97282,86.1751456 C1175.62835,86.1751456 1176.26369,86.3040777 1176.86175,86.5557282 C1177.43961,86.7996117 1177.95845,87.1506796 1178.40583,87.5965049 C1178.85165,88.0423301 1179.20272,88.561165 1179.4466,89.1405825 C1179.69981,89.7386408 1179.82718,90.3739806 1179.82718,91.0295146 C1179.82718,91.6850485 1179.69825,92.3203883 1179.4466,92.9184466 C1179.20272,93.4963107 1178.85165,94.0151456 1178.40583,94.4625243 C1177.95845,94.9083495 1177.43961,95.2578641 1176.86175,95.503301 L1176.86175,95.503301 Z" id="search"></path>
        </g>
    </g>
</svg>