<?xml version="1.0" encoding="UTF-8"?>
<svg width="14px" height="14px" viewBox="0 0 14 14" version="1.1" xmlns="http://www.w3.org/2000/svg" xmlns:xlink="http://www.w3.org/1999/xlink">
    <!-- Generator: Sketch 44.1 (41455) - http://www.bohemiancoding.com/sketch -->
    <title>sharealt</title>
    <desc>Created with Sketch.</desc>
    <defs></defs>
    <g id="P-编程" stroke="none" stroke-width="1" fill="none" fill-rule="evenodd">
        <g id="Toolbox01-Copy-4" transform="translate(-1102.000000, -23.000000)" fill="#4A4A4A">
            <g id="Group-3" transform="translate(915.000000, 14.000000)">
                <g id="Group-8" transform="translate(187.000000, 6.000000)">
                    <path d="M11.6666667,12.3551111 C10.864,12.3551111 10.1546667,12.7688889 9.74244444,13.3942222 L6.06666667,10.7871111 C6.12733333,10.546 6.16,10.2955556 6.16,10.0357778 C6.16,9.622 6.07755556,9.22688889 5.92822222,8.866 L9.93066667,6.85 C10.3537778,7.33533333 10.9744444,7.64177778 11.6666667,7.64177778 C12.936,7.64177778 13.9688889,6.60888889 13.9688889,5.33955556 C13.9688889,4.07022222 12.936,3.03733333 11.6666667,3.03733333 C10.3973333,3.03733333 9.36444444,4.07022222 9.36444444,5.33955556 C9.36444444,5.51533333 9.38466667,5.68644444 9.422,5.85133333 L5.31688889,7.92022222 C4.75533333,7.326 3.96044444,6.95577778 3.08,6.95577778 C1.38133333,6.95577778 0,8.33711111 0,10.0357778 C0,11.7344444 1.38133333,13.1157778 3.08,13.1157778 C4.11288889,13.1157778 5.02911111,12.604 5.58911111,11.8215556 L9.37066667,14.5033333 C9.36755556,14.5546667 9.366,14.606 9.366,14.6588889 C9.366,15.9282222 10.3988889,16.9611111 11.6682222,16.9611111 C12.9375556,16.9611111 13.9704444,15.9282222 13.9704444,14.6588889 C13.9704444,13.3895556 12.936,12.3551111 11.6666667,12.3551111 Z M11.6666667,4.15733333 C12.3184444,4.15733333 12.8488889,4.68777778 12.8488889,5.33955556 C12.8488889,5.99133333 12.3184444,6.52177778 11.6666667,6.52177778 C11.0148889,6.52177778 10.4844444,5.99133333 10.4844444,5.33955556 C10.4844444,4.68777778 11.0148889,4.15733333 11.6666667,4.15733333 Z M3.08,11.9957778 C1.99888889,11.9957778 1.12,11.1168889 1.12,10.0357778 C1.12,8.95466667 1.99888889,8.07577778 3.08,8.07577778 C4.16111111,8.07577778 5.04,8.95466667 5.04,10.0357778 C5.04,11.1168889 4.16111111,11.9957778 3.08,11.9957778 Z M11.6666667,15.8395556 C11.0148889,15.8395556 10.4844444,15.3091111 10.4844444,14.6573333 C10.4844444,14.0055556 11.0148889,13.4751111 11.6666667,13.4751111 C12.3184444,13.4751111 12.8488889,14.0055556 12.8488889,14.6573333 C12.8488889,15.3091111 12.3184444,15.8395556 11.6666667,15.8395556 L11.6666667,15.8395556 Z" id="sharealt"></path>
                </g>
            </g>
        </g>
    </g>
</svg>