<?xml version="1.0" encoding="UTF-8"?>
<svg width="80px" height="80px" viewBox="0 0 80 80" version="1.1" xmlns="http://www.w3.org/2000/svg" xmlns:xlink="http://www.w3.org/1999/xlink">
    <!-- Generator: Sketch 44.1 (41455) - http://www.bohemiancoding.com/sketch -->
    <title>unconnected</title>
    <desc>Created with Sketch.</desc>
    <defs></defs>
    <g id="Iconset" stroke="none" stroke-width="1" fill="none" fill-rule="evenodd">
        <g id="unconnected">
            <circle id="Oval" cx="40" cy="40" r="40"></circle>
            <g id="Page-1" transform="translate(15.000000, 26.000000)" fill-rule="nonzero" fill="#FFFFFF">
                <path d="M3.52846832,14.3406299 C3.52846832,8.33756594 8.49594556,3.46268657 14.6130192,3.46268657 L18.9683182,3.50164179 C25.0853918,3.50164179 30.0528691,8.37652117 30.0528691,14.3795851 C30.0528691,16.4759986 29.3338201,18.2442013 27.8743737,19.6141228 C27.1702496,20.2750547 27.145414,21.3710097 27.8189019,22.0620067 C28.4923897,22.7530037 29.6091649,22.7773763 30.313289,22.1164444 C32.4920756,20.0713083 33.5813374,17.3927206 33.5813374,14.3795851 C33.5813374,6.46413402 27.034113,0.0389552239 18.9683182,0.0389552239 L14.6130192,0 C6.54722444,0 0,6.42517879 0,14.3406299 C0,22.2676209 5.98456617,28.7222098 14.0387173,28.7222098 C14.1331982,28.7201357 15.9244081,28.5072665 16.3879117,28.4403005 C17.3518806,28.3010284 18.0182845,27.4212435 17.8763666,26.4752461 C17.7344486,25.5292486 16.8379502,24.8752686 15.8739813,25.0145407 C15.5472241,25.0617499 14.0486369,25.2582764 14.0111468,25.2594896 C7.92501324,25.2446444 3.52846832,20.3527155 3.52846832,14.3406299 Z" id="Stroke-2"></path>
                <path d="M19.9077787,14.3406299 C19.9077787,8.33756594 24.8752559,3.46268657 30.9923296,3.46268657 L35.3476285,3.50164179 C41.4647022,3.50164179 46.4321794,8.37652117 46.4321794,14.3795851 C46.4321794,16.4759986 45.7131305,18.2442013 44.2536841,19.6141228 C43.54956,20.2750547 43.5247244,21.3710097 44.1982122,22.0620067 C44.8717001,22.7530037 45.9884753,22.7773763 46.6925994,22.1164444 C48.871386,20.0713083 49.9606477,17.3927206 49.9606477,14.3795851 C49.9606477,6.46413402 43.4134233,0.0389552239 35.3476285,0.0389552239 L30.9923296,1.42108547e-14 C22.9265348,1.42108547e-14 16.3793103,6.42517879 16.3793103,14.3406299 C16.3793103,22.2676209 22.3638765,28.7222098 30.4180277,28.7222098 C30.5125085,28.7201357 32.3037184,28.5072665 32.7672221,28.4403005 C33.7311909,28.3010284 34.3975949,27.4212435 34.2556769,26.4752461 C34.1137589,25.5292486 33.2172606,24.8752686 32.2532917,25.0145407 C31.9265344,25.0617499 30.4279472,25.2582764 30.3904572,25.2594896 C24.3043236,25.2446444 19.9077787,20.3527155 19.9077787,14.3406299 Z" id="Stroke-2-Copy" transform="translate(33.169979, 14.361105) rotate(-180.000000) translate(-33.169979, -14.361105) "></path>
            </g>
        </g>
    </g>
</svg>